<svg width="298" height="48" viewBox="0 0 298 48" fill="none" xmlns="http://www.w3.org/2000/svg">
<path d="M109.038 6.44424C109.038 6.44424 110.053 5.05399 110.093 5.04356C110.133 5.03314 110.307 4.88021 110.257 5.21735C110.206 5.55448 109.741 7.69719 109.741 7.69719C109.741 7.69719 109.572 8.14729 110.016 8.36451C110.46 8.58174 111.97 9.81384 111.97 9.81384C111.97 9.81384 112.133 10.0797 111.7 10.0311C111.267 9.98241 109.27 9.46628 109.27 9.46628C109.27 9.46628 109.124 9.35158 108.849 9.74259C108.574 10.1336 107.091 12 107.091 12C107.091 12 106.917 12 106.98 11.7498C107.043 11.4995 107.479 9.37765 107.479 9.37765C107.479 9.37765 107.643 8.83024 107.355 8.67732C107.068 8.52439 105.031 7.01076 105.031 7.01076C105.031 7.01076 104.902 6.78832 105.171 6.83177C105.441 6.87521 107.546 7.38613 107.546 7.38613C107.546 7.38613 108.18 7.56512 108.389 7.30966C108.597 7.05421 109.04 6.44076 109.04 6.44076L109.038 6.44424Z" fill="#EDBE72"/>
<path d="M110.73 0.61926C110.73 0.61926 111.166 0.0229828 111.182 0.0186145C111.198 0.0142462 111.272 -0.0512788 111.252 0.0928761C111.232 0.237031 111.031 1.15656 111.031 1.15656C111.031 1.15656 110.958 1.34877 111.148 1.44269C111.338 1.53661 111.987 2.06299 111.987 2.06299C111.987 2.06299 112.057 2.17657 111.872 2.15691C111.686 2.13725 110.829 1.91447 110.829 1.91447C110.829 1.91447 110.766 1.86642 110.648 2.03241C110.531 2.19841 109.895 3 109.895 3C109.895 3 109.821 3 109.848 2.89298C109.875 2.78595 110.063 1.87516 110.063 1.87516C110.063 1.87516 110.133 1.63927 110.011 1.57592C109.889 1.51258 109.014 0.861702 109.014 0.861702C109.014 0.861702 108.957 0.765599 109.075 0.785256C109.192 0.804914 110.094 1.02333 110.094 1.02333C110.094 1.02333 110.366 1.09978 110.456 0.990568C110.547 0.88136 110.737 0.61926 110.737 0.61926H110.73Z" fill="#EDBE72"/>
<path d="M114.732 4.82577C114.732 4.82577 115.167 4.03268 115.184 4.02513C115.202 4.01758 115.275 3.9326 115.255 4.12521C115.234 4.31782 115.033 5.54143 115.033 5.54143C115.033 5.54143 114.962 5.79824 115.151 5.92287C115.34 6.0475 115.987 6.74995 115.987 6.74995C115.987 6.74995 116.057 6.90101 115.871 6.87457C115.685 6.84814 114.83 6.55167 114.83 6.55167C114.83 6.55167 114.767 6.48747 114.65 6.71029C114.532 6.93311 113.897 8 113.897 8C113.897 8 113.822 8 113.848 7.85649C113.875 7.71298 114.062 6.50258 114.062 6.50258C114.062 6.50258 114.133 6.18912 114.009 6.10226C113.886 6.0154 113.013 5.15056 113.013 5.15056C113.013 5.15056 112.958 5.02404 113.073 5.04859C113.189 5.07314 114.09 5.36393 114.09 5.36393C114.09 5.36393 114.362 5.4659 114.45 5.3205C114.538 5.1751 114.729 4.82388 114.729 4.82388L114.732 4.82577Z" fill="#EDBE72"/>
<path d="M10.5276 36.6526C14.8245 34.388 20.2459 33.4641 20.2459 33.4641C31.8163 29.6613 52.3602 32.8376 53.5814 32.9424C54.8025 33.0473 79.6506 37.4107 79.6506 37.4107C79.6506 37.4107 88.375 38.888 96.6109 37.1645C104.847 35.4411 109.642 27.0968 109.925 26.2631C110.208 25.4294 109.601 25.7951 109.601 25.7951C108.45 26.9944 102.678 30.434 100.178 31.4506C97.6773 32.4671 97.716 31.5919 97.6942 31.5115C97.6725 31.4311 98.231 27.3772 98.231 27.3772C99.3579 20.6101 96.9011 14.6792 96.9011 14.6792C96.9011 14.6792 97.9941 13.1824 97.5226 11.5492C97.051 9.91346 95.2786 10.1914 94.8071 10.2157C94.3355 10.2401 91.8981 11.4443 91.5741 11.4321C91.2501 11.42 90.3215 11.1616 90.3215 11.1616C83.7565 9.27722 69.7462 10.579 69.7462 10.579C69.7462 10.579 64.4917 12.3755 62.3735 11.0251C60.2553 9.67457 58.536 11.008 58.536 11.008C58.536 11.008 57.7356 12.3804 57.9387 13.1044C58.1419 13.8284 58.4731 15.0619 58.4901 15.5909C58.507 16.1198 57.7429 18.0676 57.7429 18.0676C56.6741 23.0088 57.3947 28.011 57.4914 28.4351C57.5881 28.8593 57.4164 29.398 57.4164 29.398L56.8675 29.42C53.8715 29.5199 54.2657 28.7057 54.2657 28.7057C54.331 19.4302 53.5959 15.9809 53.2767 15.5689C52.9575 15.157 53.1244 14.9498 53.5451 12.8485C53.9659 10.7472 51.8694 10.1158 51.8694 10.1158C51.8694 10.1158 50.8344 9.9354 49.2095 10.7593C47.5846 11.5833 46.702 11.2615 46.702 11.2615C44.6297 10.3717 40.6931 10.128 40.6931 10.128C40.6931 10.128 27.7104 9.61606 24.8136 10.6399C21.9167 11.6637 19.3633 11.4736 19.3633 11.4736L19.032 11.2786C18.2147 10.6911 16.9404 10.4424 16.9404 10.4424C16.9404 10.4424 16.2851 10.2864 15.2574 10.5278C14.2297 10.7691 13.9468 12.0367 13.9468 12.0367C13.9468 12.0367 13.7606 13.0118 14.1958 13.8211C14.6311 14.6304 14.3119 15.5738 14.266 15.7396C14.22 15.9053 13.601 18.3845 13.601 18.3845C12.8562 21.495 13.4027 29.6028 13.4027 29.6028C13.4027 29.6028 13.8138 32.2257 14.2418 33.0302C14.6698 33.8346 13.9879 34.1978 13.9879 34.1978C12.4693 34.8292 10.0005 36.5892 10.0005 36.5892C10.0005 36.5892 9.96422 36.872 10.518 36.6502L10.5276 36.6526Z" fill="#88CAC2"/>
<path d="M0 43.6603C0 43.6603 11.0301 35.0852 24.9723 33.644C38.9144 32.2029 49.1344 33.7104 62.2373 36.5953C75.3401 39.4802 84.5967 42.4979 94.9335 40.9877C105.27 39.4802 112.904 33.9705 116.33 27.2823C116.33 27.2823 117.291 25.3926 117.32 25.2493C117.349 25.106 117.938 24.6708 117.999 25.459C118.057 26.2472 116.407 34.6897 111.615 39.873C106.822 45.059 99.9888 48.8277 87.1828 47.8431C87.1828 47.8431 74.457 46.386 61.2593 42.5722C61.2593 42.5722 49.475 39.4006 44.6436 38.7584C39.8121 38.1161 30.9155 36.4865 20.3695 37.9436C9.82348 39.4006 0 43.6603 0 43.6603Z" fill="#EDBE72"/>
<path d="M140.25 38V20H154.594C155.953 20 157.066 20.1289 157.934 20.3867C158.809 20.6367 159.453 21.0859 159.867 21.7344C160.289 22.375 160.5 23.2852 160.5 24.4648C160.5 25.5273 160.254 26.4062 159.762 27.1016C159.27 27.7969 158.516 28.1797 157.5 28.25C158.828 28.3828 159.785 28.8594 160.371 29.6797C160.957 30.4922 161.25 31.5156 161.25 32.75C161.25 33.8203 161.125 34.6992 160.875 35.3867C160.633 36.0742 160.223 36.6094 159.645 36.9922C159.066 37.3672 158.281 37.6289 157.289 37.7773C156.305 37.9258 155.074 38 153.598 38H140.25ZM142.5 27.5H152.988C154.199 27.5 155.191 27.457 155.965 27.3711C156.738 27.2852 157.312 27.0312 157.688 26.6094C158.062 26.1875 158.25 25.4727 158.25 24.4648C158.25 23.6758 158.137 23.0977 157.91 22.7305C157.691 22.3633 157.316 22.1289 156.785 22.0273C156.254 21.9258 155.523 21.875 154.594 21.875H142.5V27.5ZM142.5 36.125H153.598C154.668 36.125 155.551 36.0977 156.246 36.043C156.949 35.9883 157.5 35.8555 157.898 35.6445C158.305 35.4336 158.59 35.1016 158.754 34.6484C158.918 34.1875 159 33.5547 159 32.75C159 31.9219 158.844 31.2773 158.531 30.8164C158.227 30.3555 157.797 30.0234 157.242 29.8203C156.695 29.6172 156.059 29.4922 155.332 29.4453C154.605 29.3984 153.824 29.375 152.988 29.375H142.5V36.125ZM163.5 38L174 20H177L187.5 38H184.875L182.625 33.875H168.375L166.125 38H163.5ZM169.5 32H181.5L175.5 21.5L169.5 32ZM198.551 38.375C196.793 38.375 195.348 38.2539 194.215 38.0117C193.082 37.7773 192.195 37.3398 191.555 36.6992C190.922 36.0586 190.477 35.1367 190.219 33.9336C189.969 32.7305 189.844 31.1641 189.844 29.2344V20H192.094V29.2344C192.094 30.5625 192.141 31.6641 192.234 32.5391C192.328 33.4141 192.504 34.1133 192.762 34.6367C193.02 35.1602 193.387 35.5508 193.863 35.8086C194.348 36.0664 194.973 36.2344 195.738 36.3125C196.504 36.3906 197.441 36.4297 198.551 36.4297H202.793C203.91 36.4297 204.848 36.3906 205.605 36.3125C206.371 36.2344 206.992 36.0664 207.469 35.8086C207.953 35.5508 208.324 35.1602 208.582 34.6367C208.84 34.1133 209.016 33.4141 209.109 32.5391C209.203 31.6641 209.25 30.5625 209.25 29.2344V20H211.5V29.2344C211.5 31.1641 211.371 32.7305 211.113 33.9336C210.863 35.1367 210.418 36.0586 209.777 36.6992C209.145 37.3398 208.262 37.7773 207.129 38.0117C205.996 38.2539 204.551 38.375 202.793 38.375H198.551ZM234.504 32.7969C234.504 32.1016 234.449 31.5547 234.34 31.1562C234.23 30.7578 233.984 30.4648 233.602 30.2773C233.219 30.082 232.625 29.957 231.82 29.9023C231.016 29.8398 229.914 29.7969 228.516 29.7734L222 29.6797C220.391 29.6562 219.098 29.5586 218.121 29.3867C217.145 29.2148 216.406 28.9453 215.906 28.5781C215.406 28.2031 215.07 27.7031 214.898 27.0781C214.734 26.4531 214.652 25.6719 214.652 24.7344C214.652 23.7109 214.766 22.8672 214.992 22.2031C215.227 21.5391 215.645 21.0195 216.246 20.6445C216.855 20.2695 217.715 20.0078 218.824 19.8594C219.934 19.7031 221.367 19.625 223.125 19.625H228.141C229.734 19.625 231.062 19.6758 232.125 19.7773C233.188 19.8789 234.031 20.1133 234.656 20.4805C235.281 20.8477 235.727 21.418 235.992 22.1914C236.266 22.9648 236.402 24.0273 236.402 25.3789H234.152C234.152 24.332 234.051 23.543 233.848 23.0117C233.652 22.4727 233.324 22.1055 232.863 21.9102C232.41 21.7148 231.797 21.6094 231.023 21.5938C230.25 21.5781 229.289 21.5703 228.141 21.5703H223.242C221.844 21.5703 220.723 21.5977 219.879 21.6523C219.043 21.707 218.41 21.832 217.98 22.0273C217.551 22.2227 217.262 22.5352 217.113 22.9648C216.973 23.3945 216.902 23.9844 216.902 24.7344C216.902 25.3672 216.953 25.875 217.055 26.2578C217.156 26.6406 217.383 26.9336 217.734 27.1367C218.094 27.332 218.645 27.4688 219.387 27.5469C220.129 27.6172 221.141 27.6602 222.422 27.6758L229.406 27.7695C231.047 27.793 232.355 27.8906 233.332 28.0625C234.316 28.2266 235.051 28.4961 235.535 28.8711C236.027 29.2461 236.352 29.7539 236.508 30.3945C236.672 31.0273 236.754 31.8281 236.754 32.7969C236.754 33.8516 236.652 34.7383 236.449 35.457C236.254 36.168 235.871 36.7383 235.301 37.168C234.73 37.5977 233.906 37.9062 232.828 38.0938C231.75 38.2812 230.332 38.375 228.574 38.375H223.09C221.488 38.375 220.145 38.3047 219.059 38.1641C217.973 38.0234 217.105 37.7422 216.457 37.3203C215.816 36.8906 215.355 36.2539 215.074 35.4102C214.793 34.5664 214.652 33.4414 214.652 32.0352H216.902C216.902 33.1367 216.992 33.9883 217.172 34.5898C217.352 35.1914 217.664 35.625 218.109 35.8906C218.562 36.1484 219.191 36.3047 219.996 36.3594C220.809 36.4062 221.84 36.4297 223.09 36.4297H228.457C229.855 36.4297 230.961 36.3867 231.773 36.3008C232.586 36.207 233.188 36.0352 233.578 35.7852C233.969 35.5273 234.219 35.1602 234.328 34.6836C234.445 34.207 234.504 33.5781 234.504 32.7969ZM240.445 38V20H242.695V38H240.445ZM247.195 38V20H249.539L267.621 35.2227H267.645V20H269.895V38H267.551L249.469 22.6484H249.445V38H247.195ZM273.656 29.2344V28.7656C273.656 27.1719 273.734 25.8359 273.891 24.7578C274.047 23.6719 274.316 22.7891 274.699 22.1094C275.082 21.4297 275.602 20.9102 276.258 20.5508C276.922 20.1914 277.754 19.9492 278.754 19.8242C279.754 19.6914 280.957 19.625 282.363 19.625H286.77C288.613 19.625 290.109 19.6953 291.258 19.8359C292.414 19.9766 293.301 20.2461 293.918 20.6445C294.543 21.043 294.973 21.625 295.207 22.3906C295.441 23.1484 295.559 24.1445 295.559 25.3789H293.309C293.309 24.4492 293.227 23.7266 293.062 23.2109C292.898 22.6875 292.59 22.3125 292.137 22.0859C291.684 21.8516 291.023 21.707 290.156 21.6523C289.297 21.5977 288.168 21.5703 286.77 21.5703H282.363C281.246 21.5703 280.305 21.6055 279.539 21.6758C278.773 21.7383 278.148 21.8906 277.664 22.1328C277.188 22.3672 276.82 22.7422 276.562 23.2578C276.312 23.7734 276.141 24.4766 276.047 25.3672C275.953 26.2578 275.906 27.3906 275.906 28.7656V29.2344C275.906 30.5625 275.953 31.6641 276.047 32.5391C276.141 33.4141 276.312 34.1133 276.562 34.6367C276.82 35.1602 277.188 35.5508 277.664 35.8086C278.148 36.0664 278.773 36.2344 279.539 36.3125C280.305 36.3906 281.246 36.4297 282.363 36.4297H287.555C288.844 36.4297 289.883 36.3789 290.672 36.2773C291.461 36.168 292.059 35.9414 292.465 35.5977C292.879 35.2461 293.156 34.7148 293.297 34.0039C293.438 33.2852 293.508 32.3164 293.508 31.0977V30.4062H284.895V28.5312H295.758V31.0977C295.758 32.6211 295.629 33.8594 295.371 34.8125C295.113 35.7656 294.676 36.5039 294.059 37.0273C293.449 37.543 292.613 37.8945 291.551 38.082C290.496 38.2773 289.164 38.375 287.555 38.375H282.363C280.605 38.375 279.16 38.2539 278.027 38.0117C276.895 37.7773 276.008 37.3398 275.367 36.6992C274.734 36.0586 274.289 35.1367 274.031 33.9336C273.781 32.7305 273.656 31.1641 273.656 29.2344Z" fill="black"/>
</svg>
