<svg width="80" height="44" viewBox="0 0 80 44" fill="none" xmlns="http://www.w3.org/2000/svg">
<path d="M66.3073 3.82528C66.3073 3.82528 66.8877 3.03085 66.9103 3.02489C66.9329 3.01894 67.0325 2.93155 67.0038 3.1242C66.975 3.31685 66.709 4.54125 66.709 4.54125C66.709 4.54125 66.6124 4.79845 66.8661 4.92258C67.1199 5.04671 67.9827 5.75077 67.9827 5.75077C67.9827 5.75077 68.0762 5.9027 67.8286 5.8749C67.5811 5.84709 66.4399 5.55216 66.4399 5.55216C66.4399 5.55216 66.3567 5.48662 66.1995 5.71005C66.0423 5.93348 65.1949 7 65.1949 7C65.1949 7 65.0953 7 65.1312 6.857C65.1672 6.71401 65.4168 5.50152 65.4168 5.50152C65.4168 5.50152 65.5103 5.18871 65.3459 5.10132C65.1816 5.01394 64.0177 4.14901 64.0177 4.14901C64.0177 4.14901 63.9438 4.0219 64.0979 4.04672C64.2519 4.07155 65.4548 4.3635 65.4548 4.3635C65.4548 4.3635 65.8174 4.46578 65.9365 4.31981C66.0557 4.17383 66.3084 3.82329 66.3084 3.82329L66.3073 3.82528Z" fill="#EDBE72"/>
<path d="M67.1532 0.20642C67.1532 0.20642 67.4441 0.00766094 67.4547 0.00620483C67.4652 0.00474872 67.515 -0.0170929 67.5014 0.0309587C67.4879 0.0790103 67.3537 0.385522 67.3537 0.385522C67.3537 0.385522 67.3055 0.44959 67.4321 0.480897C67.5587 0.512203 67.9913 0.687664 67.9913 0.687664C67.9913 0.687664 68.0381 0.725523 67.9145 0.718971C67.7908 0.712418 67.2195 0.638157 67.2195 0.638157C67.2195 0.638157 67.1773 0.622139 67.0989 0.677472C67.0205 0.732804 66.597 1 66.597 1C66.597 1 66.5472 1 66.5653 0.964325C66.5834 0.928651 66.7085 0.625052 66.7085 0.625052C66.7085 0.625052 66.7552 0.546422 66.6738 0.525308C66.5924 0.504194 66.0091 0.287234 66.0091 0.287234C66.0091 0.287234 65.9714 0.2552 66.0498 0.261752C66.1281 0.268305 66.7296 0.34111 66.7296 0.34111C66.7296 0.34111 66.9105 0.366592 66.9708 0.330189C67.0311 0.293787 67.1577 0.20642 67.1577 0.20642H67.1532Z" fill="#EDBE72"/>
<path d="M69.1544 1.61933C69.1544 1.61933 69.4444 1.02451 69.4562 1.01885C69.4679 1.01318 69.5167 0.949452 69.503 1.09391C69.4894 1.23836 69.3556 2.15608 69.3556 2.15608C69.3556 2.15608 69.3077 2.34868 69.4337 2.44215C69.5597 2.53562 69.9913 3.06246 69.9913 3.06246C69.9913 3.06246 70.0382 3.17576 69.9142 3.15593C69.7901 3.1361 69.2198 2.91376 69.2198 2.91376C69.2198 2.91376 69.1778 2.8656 69.0997 3.03272C69.0216 3.19983 68.5978 4 68.5978 4C68.5978 4 68.548 4 68.5656 3.89237C68.5831 3.78473 68.7081 2.87693 68.7081 2.87693C68.7081 2.87693 68.755 2.64184 68.673 2.57669C68.5909 2.51155 68.0089 1.86292 68.0089 1.86292C68.0089 1.86292 67.9718 1.76803 68.049 1.78644C68.1261 1.80485 68.7267 2.02295 68.7267 2.02295C68.7267 2.02295 68.9083 2.09943 68.9669 1.99038C69.0255 1.88133 69.1525 1.61791 69.1525 1.61791L69.1544 1.61933Z" fill="#EDBE72"/>
<path d="M12.2902 20.2301C14.6535 18.936 17.6352 18.4081 17.6352 18.4081C23.999 16.235 35.2981 18.0501 35.9698 18.11C36.6414 18.1699 50.3078 20.6633 50.3078 20.6633C50.3078 20.6633 55.1062 21.5074 59.636 20.5226C64.1658 19.5378 66.8031 14.7696 66.9587 14.2932C67.1143 13.8168 66.7805 14.0258 66.7805 14.0258C66.1474 14.7111 62.9728 16.6766 61.5977 17.2575C60.2225 17.8383 60.2438 17.3383 60.2318 17.2923C60.2199 17.2463 60.5271 14.9298 60.5271 14.9298C61.1468 11.0629 59.7956 7.67381 59.7956 7.67381C59.7956 7.67381 60.3967 6.81853 60.1374 5.88523C59.8781 4.95055 58.9032 5.10935 58.6439 5.12328C58.3845 5.13721 57.044 5.82534 56.8658 5.81837C56.6875 5.81141 56.1768 5.66375 56.1768 5.66375C52.5661 4.58698 44.8604 5.33083 44.8604 5.33083C44.8604 5.33083 41.9704 6.35745 40.8054 5.58575C39.6404 4.81404 38.6948 5.57599 38.6948 5.57599C38.6948 5.57599 38.2546 6.36024 38.3663 6.77395C38.478 7.18766 38.6602 7.89251 38.6695 8.19478C38.6788 8.49706 38.2586 9.61004 38.2586 9.61004C37.6707 12.4336 38.0671 15.292 38.1203 15.5344C38.1735 15.7767 38.079 16.0846 38.079 16.0846L37.7771 16.0971C36.1294 16.1542 36.3461 15.689 36.3461 15.689C36.382 10.3887 35.9777 8.41766 35.8022 8.18225C35.6266 7.94683 35.7184 7.82843 35.9498 6.62769C36.1812 5.42695 35.0282 5.06617 35.0282 5.06617C35.0282 5.06617 34.4589 4.96309 33.5652 5.43391C32.6715 5.90474 32.1861 5.72086 32.1861 5.72086C31.0463 5.21243 28.8812 5.07313 28.8812 5.07313C28.8812 5.07313 21.7407 4.78061 20.1475 5.36566C18.5542 5.9507 17.1498 5.84205 17.1498 5.84205L16.9676 5.73061C16.5181 5.39491 15.8172 5.25282 15.8172 5.25282C15.8172 5.25282 15.4568 5.16367 14.8916 5.30158C14.3263 5.43948 14.1707 6.16383 14.1707 6.16383C14.1707 6.16383 14.0683 6.72102 14.3077 7.18348C14.5471 7.64595 14.3715 8.18503 14.3463 8.27975C14.321 8.37448 13.9805 9.79113 13.9805 9.79113C13.5709 11.5686 13.8715 16.2016 13.8715 16.2016C13.8715 16.2016 14.0976 17.7004 14.333 18.1601C14.5684 18.6198 14.1933 18.8273 14.1933 18.8273C13.3581 19.1881 12.0003 20.1938 12.0003 20.1938C12.0003 20.1938 11.9803 20.3554 12.2849 20.2287L12.2902 20.2301Z" fill="#88CAC2"/>
<path d="M7 23.7358C7 23.7358 12.9824 19.2618 20.5443 18.5099C28.1061 17.758 33.6492 18.5445 40.7558 20.0497C47.8624 21.5549 52.883 23.1293 58.4894 22.3414C64.0958 21.5549 68.2362 18.6802 70.094 15.1908C70.094 15.1908 70.6152 14.2049 70.6311 14.1301C70.6469 14.0553 70.9662 13.8282 70.9992 14.2395C71.0309 14.6507 70.1363 19.0555 67.5369 21.7598C64.9376 24.4656 61.2312 26.4319 54.2856 25.9181C54.2856 25.9181 47.3835 25.1579 40.2254 23.1681C40.2254 23.1681 33.8339 21.5134 31.2135 21.1783C28.593 20.8432 23.7677 19.993 18.0479 20.7532C12.328 21.5134 7 23.7358 7 23.7358Z" fill="#EDBE72"/>
<path d="M1.125 41V32H8.29688C8.97656 32 9.5332 32.0645 9.9668 32.1934C10.4043 32.3184 10.7266 32.543 10.9336 32.8672C11.1445 33.1875 11.25 33.6426 11.25 34.2324C11.25 34.7637 11.127 35.2031 10.8809 35.5508C10.6348 35.8984 10.2578 36.0898 9.75 36.125C10.4141 36.1914 10.8926 36.4297 11.1855 36.8398C11.4785 37.2461 11.625 37.7578 11.625 38.375C11.625 38.9102 11.5625 39.3496 11.4375 39.6934C11.3164 40.0371 11.1113 40.3047 10.8223 40.4961C10.5332 40.6836 10.1406 40.8145 9.64453 40.8887C9.15234 40.9629 8.53711 41 7.79883 41H1.125ZM2.25 35.75H7.49414C8.09961 35.75 8.5957 35.7285 8.98242 35.6855C9.36914 35.6426 9.65625 35.5156 9.84375 35.3047C10.0312 35.0938 10.125 34.7363 10.125 34.2324C10.125 33.8379 10.0684 33.5488 9.95508 33.3652C9.8457 33.1816 9.6582 33.0645 9.39258 33.0137C9.12695 32.9629 8.76172 32.9375 8.29688 32.9375H2.25V35.75ZM2.25 40.0625H7.79883C8.33398 40.0625 8.77539 40.0488 9.12305 40.0215C9.47461 39.9941 9.75 39.9277 9.94922 39.8223C10.1523 39.7168 10.2949 39.5508 10.377 39.3242C10.459 39.0938 10.5 38.7773 10.5 38.375C10.5 37.9609 10.4219 37.6387 10.2656 37.4082C10.1133 37.1777 9.89844 37.0117 9.62109 36.9102C9.34766 36.8086 9.0293 36.7461 8.66602 36.7227C8.30273 36.6992 7.91211 36.6875 7.49414 36.6875H2.25V40.0625ZM12.75 41L18 32H19.5L24.75 41H23.4375L22.3125 38.9375H15.1875L14.0625 41H12.75ZM15.75 38H21.75L18.75 32.75L15.75 38ZM30.2754 41.1875C29.3965 41.1875 28.6738 41.127 28.1074 41.0059C27.541 40.8887 27.0977 40.6699 26.7773 40.3496C26.4609 40.0293 26.2383 39.5684 26.1094 38.9668C25.9844 38.3652 25.9219 37.582 25.9219 36.6172V32H27.0469V36.6172C27.0469 37.2812 27.0703 37.832 27.1172 38.2695C27.1641 38.707 27.252 39.0566 27.3809 39.3184C27.5098 39.5801 27.6934 39.7754 27.9316 39.9043C28.1738 40.0332 28.4863 40.1172 28.8691 40.1562C29.252 40.1953 29.7207 40.2148 30.2754 40.2148H32.3965C32.9551 40.2148 33.4238 40.1953 33.8027 40.1562C34.1855 40.1172 34.4961 40.0332 34.7344 39.9043C34.9766 39.7754 35.1621 39.5801 35.291 39.3184C35.4199 39.0566 35.5078 38.707 35.5547 38.2695C35.6016 37.832 35.625 37.2812 35.625 36.6172V32H36.75V36.6172C36.75 37.582 36.6855 38.3652 36.5566 38.9668C36.4316 39.5684 36.209 40.0293 35.8887 40.3496C35.5723 40.6699 35.1309 40.8887 34.5645 41.0059C33.998 41.127 33.2754 41.1875 32.3965 41.1875H30.2754ZM48.252 38.3984C48.252 38.0508 48.2246 37.7773 48.1699 37.5781C48.1152 37.3789 47.9922 37.2324 47.8008 37.1387C47.6094 37.041 47.3125 36.9785 46.9102 36.9512C46.5078 36.9199 45.957 36.8984 45.2578 36.8867L42 36.8398C41.1953 36.8281 40.5488 36.7793 40.0605 36.6934C39.5723 36.6074 39.2031 36.4727 38.9531 36.2891C38.7031 36.1016 38.5352 35.8516 38.4492 35.5391C38.3672 35.2266 38.3262 34.8359 38.3262 34.3672C38.3262 33.8555 38.3828 33.4336 38.4961 33.1016C38.6133 32.7695 38.8223 32.5098 39.123 32.3223C39.4277 32.1348 39.8574 32.0039 40.4121 31.9297C40.9668 31.8516 41.6836 31.8125 42.5625 31.8125H45.0703C45.8672 31.8125 46.5312 31.8379 47.0625 31.8887C47.5938 31.9395 48.0156 32.0566 48.3281 32.2402C48.6406 32.4238 48.8633 32.709 48.9961 33.0957C49.1328 33.4824 49.2012 34.0137 49.2012 34.6895H48.0762C48.0762 34.166 48.0254 33.7715 47.9238 33.5059C47.8262 33.2363 47.6621 33.0527 47.4316 32.9551C47.2051 32.8574 46.8984 32.8047 46.5117 32.7969C46.125 32.7891 45.6445 32.7852 45.0703 32.7852H42.6211C41.9219 32.7852 41.3613 32.7988 40.9395 32.8262C40.5215 32.8535 40.2051 32.916 39.9902 33.0137C39.7754 33.1113 39.6309 33.2676 39.5566 33.4824C39.4863 33.6973 39.4512 33.9922 39.4512 34.3672C39.4512 34.6836 39.4766 34.9375 39.5273 35.1289C39.5781 35.3203 39.6914 35.4668 39.8672 35.5684C40.0469 35.666 40.3223 35.7344 40.6934 35.7734C41.0645 35.8086 41.5703 35.8301 42.2109 35.8379L45.7031 35.8848C46.5234 35.8965 47.1777 35.9453 47.666 36.0312C48.1582 36.1133 48.5254 36.248 48.7676 36.4355C49.0137 36.623 49.1758 36.877 49.2539 37.1973C49.3359 37.5137 49.377 37.9141 49.377 38.3984C49.377 38.9258 49.3262 39.3691 49.2246 39.7285C49.127 40.084 48.9355 40.3691 48.6504 40.584C48.3652 40.7988 47.9531 40.9531 47.4141 41.0469C46.875 41.1406 46.166 41.1875 45.2871 41.1875H42.5449C41.7441 41.1875 41.0723 41.1523 40.5293 41.082C39.9863 41.0117 39.5527 40.8711 39.2285 40.6602C38.9082 40.4453 38.6777 40.127 38.5371 39.7051C38.3965 39.2832 38.3262 38.7207 38.3262 38.0176H39.4512C39.4512 38.5684 39.4961 38.9941 39.5859 39.2949C39.6758 39.5957 39.832 39.8125 40.0547 39.9453C40.2812 40.0742 40.5957 40.1523 40.998 40.1797C41.4043 40.2031 41.9199 40.2148 42.5449 40.2148H45.2285C45.9277 40.2148 46.4805 40.1934 46.8867 40.1504C47.293 40.1035 47.5938 40.0176 47.7891 39.8926C47.9844 39.7637 48.1094 39.5801 48.1641 39.3418C48.2227 39.1035 48.252 38.7891 48.252 38.3984ZM51.2227 41V32H52.3477V41H51.2227ZM54.5977 41V32H55.7695L64.8105 39.6113H64.8223V32H65.9473V41H64.7754L55.7344 33.3242H55.7227V41H54.5977ZM67.8281 36.6172V36.3828C67.8281 35.5859 67.8672 34.918 67.9453 34.3789C68.0234 33.8359 68.1582 33.3945 68.3496 33.0547C68.541 32.7148 68.8008 32.4551 69.1289 32.2754C69.4609 32.0957 69.877 31.9746 70.377 31.9121C70.877 31.8457 71.4785 31.8125 72.1816 31.8125H74.3848C75.3066 31.8125 76.0547 31.8477 76.6289 31.918C77.207 31.9883 77.6504 32.123 77.959 32.3223C78.2715 32.5215 78.4863 32.8125 78.6035 33.1953C78.7207 33.5742 78.7793 34.0723 78.7793 34.6895H77.6543C77.6543 34.2246 77.6133 33.8633 77.5312 33.6055C77.4492 33.3438 77.2949 33.1562 77.0684 33.043C76.8418 32.9258 76.5117 32.8535 76.0781 32.8262C75.6484 32.7988 75.084 32.7852 74.3848 32.7852H72.1816C71.623 32.7852 71.1523 32.8027 70.7695 32.8379C70.3867 32.8691 70.0742 32.9453 69.832 33.0664C69.5938 33.1836 69.4102 33.3711 69.2812 33.6289C69.1562 33.8867 69.0703 34.2383 69.0234 34.6836C68.9766 35.1289 68.9531 35.6953 68.9531 36.3828V36.6172C68.9531 37.2812 68.9766 37.832 69.0234 38.2695C69.0703 38.707 69.1562 39.0566 69.2812 39.3184C69.4102 39.5801 69.5938 39.7754 69.832 39.9043C70.0742 40.0332 70.3867 40.1172 70.7695 40.1562C71.1523 40.1953 71.623 40.2148 72.1816 40.2148H74.7773C75.4219 40.2148 75.9414 40.1895 76.3359 40.1387C76.7305 40.084 77.0293 39.9707 77.2324 39.7988C77.4395 39.623 77.5781 39.3574 77.6484 39.002C77.7188 38.6426 77.7539 38.1582 77.7539 37.5488V37.2031H73.4473V36.2656H78.8789V37.5488C78.8789 38.3105 78.8145 38.9297 78.6855 39.4062C78.5566 39.8828 78.3379 40.252 78.0293 40.5137C77.7246 40.7715 77.3066 40.9473 76.7754 41.041C76.248 41.1387 75.582 41.1875 74.7773 41.1875H72.1816C71.3027 41.1875 70.5801 41.127 70.0137 41.0059C69.4473 40.8887 69.0039 40.6699 68.6836 40.3496C68.3672 40.0293 68.1445 39.5684 68.0156 38.9668C67.8906 38.3652 67.8281 37.582 67.8281 36.6172Z" fill="black"/>
</svg>
