<svg width="156" height="19" viewBox="0 0 156 19" fill="none" xmlns="http://www.w3.org/2000/svg">
<path d="M0 18.375V0.375H14.3438C15.7031 0.375 16.8164 0.503906 17.6836 0.761719C18.5586 1.01172 19.2031 1.46094 19.6172 2.10938C20.0391 2.75 20.25 3.66016 20.25 4.83984C20.25 5.90234 20.0039 6.78125 19.5117 7.47656C19.0195 8.17188 18.2656 8.55469 17.25 8.625C18.5781 8.75781 19.5352 9.23438 20.1211 10.0547C20.707 10.8672 21 11.8906 21 13.125C21 14.1953 20.875 15.0742 20.625 15.7617C20.3828 16.4492 19.9727 16.9844 19.3945 17.3672C18.8164 17.7422 18.0312 18.0039 17.0391 18.1523C16.0547 18.3008 14.8242 18.375 13.3477 18.375H0ZM2.25 7.875H12.7383C13.9492 7.875 14.9414 7.83203 15.7148 7.74609C16.4883 7.66016 17.0625 7.40625 17.4375 6.98438C17.8125 6.5625 18 5.84766 18 4.83984C18 4.05078 17.8867 3.47266 17.6602 3.10547C17.4414 2.73828 17.0664 2.50391 16.5352 2.40234C16.0039 2.30078 15.2734 2.25 14.3438 2.25H2.25V7.875ZM2.25 16.5H13.3477C14.418 16.5 15.3008 16.4727 15.9961 16.418C16.6992 16.3633 17.25 16.2305 17.6484 16.0195C18.0547 15.8086 18.3398 15.4766 18.5039 15.0234C18.668 14.5625 18.75 13.9297 18.75 13.125C18.75 12.2969 18.5938 11.6523 18.2812 11.1914C17.9766 10.7305 17.5469 10.3984 16.9922 10.1953C16.4453 9.99219 15.8086 9.86719 15.082 9.82031C14.3555 9.77344 13.5742 9.75 12.7383 9.75H2.25V16.5ZM23.25 18.375L33.75 0.375H36.75L47.25 18.375H44.625L42.375 14.25H28.125L25.875 18.375H23.25ZM29.25 12.375H41.25L35.25 1.875L29.25 12.375ZM58.3008 18.75C56.543 18.75 55.0977 18.6289 53.9648 18.3867C52.832 18.1523 51.9453 17.7148 51.3047 17.0742C50.6719 16.4336 50.2266 15.5117 49.9688 14.3086C49.7188 13.1055 49.5938 11.5391 49.5938 9.60938V0.375H51.8438V9.60938C51.8438 10.9375 51.8906 12.0391 51.9844 12.9141C52.0781 13.7891 52.2539 14.4883 52.5117 15.0117C52.7695 15.5352 53.1367 15.9258 53.6133 16.1836C54.0977 16.4414 54.7227 16.6094 55.4883 16.6875C56.2539 16.7656 57.1914 16.8047 58.3008 16.8047H62.543C63.6602 16.8047 64.5977 16.7656 65.3555 16.6875C66.1211 16.6094 66.7422 16.4414 67.2188 16.1836C67.7031 15.9258 68.0742 15.5352 68.332 15.0117C68.5898 14.4883 68.7656 13.7891 68.8594 12.9141C68.9531 12.0391 69 10.9375 69 9.60938V0.375H71.25V9.60938C71.25 11.5391 71.1211 13.1055 70.8633 14.3086C70.6133 15.5117 70.168 16.4336 69.5273 17.0742C68.8945 17.7148 68.0117 18.1523 66.8789 18.3867C65.7461 18.6289 64.3008 18.75 62.543 18.75H58.3008ZM94.2539 13.1719C94.2539 12.4766 94.1992 11.9297 94.0898 11.5312C93.9805 11.1328 93.7344 10.8398 93.3516 10.6523C92.9688 10.457 92.375 10.332 91.5703 10.2773C90.7656 10.2148 89.6641 10.1719 88.2656 10.1484L81.75 10.0547C80.1406 10.0312 78.8477 9.93359 77.8711 9.76172C76.8945 9.58984 76.1562 9.32031 75.6562 8.95312C75.1562 8.57812 74.8203 8.07812 74.6484 7.45312C74.4844 6.82812 74.4023 6.04688 74.4023 5.10938C74.4023 4.08594 74.5156 3.24219 74.7422 2.57812C74.9766 1.91406 75.3945 1.39453 75.9961 1.01953C76.6055 0.644531 77.4648 0.382812 78.5742 0.234375C79.6836 0.078125 81.1172 0 82.875 0H87.8906C89.4844 0 90.8125 0.0507812 91.875 0.152344C92.9375 0.253906 93.7812 0.488281 94.4062 0.855469C95.0312 1.22266 95.4766 1.79297 95.7422 2.56641C96.0156 3.33984 96.1523 4.40234 96.1523 5.75391H93.9023C93.9023 4.70703 93.8008 3.91797 93.5977 3.38672C93.4023 2.84766 93.0742 2.48047 92.6133 2.28516C92.1602 2.08984 91.5469 1.98438 90.7734 1.96875C90 1.95312 89.0391 1.94531 87.8906 1.94531H82.9922C81.5938 1.94531 80.4727 1.97266 79.6289 2.02734C78.793 2.08203 78.1602 2.20703 77.7305 2.40234C77.3008 2.59766 77.0117 2.91016 76.8633 3.33984C76.7227 3.76953 76.6523 4.35938 76.6523 5.10938C76.6523 5.74219 76.7031 6.25 76.8047 6.63281C76.9062 7.01562 77.1328 7.30859 77.4844 7.51172C77.8438 7.70703 78.3945 7.84375 79.1367 7.92188C79.8789 7.99219 80.8906 8.03516 82.1719 8.05078L89.1562 8.14453C90.7969 8.16797 92.1055 8.26562 93.082 8.4375C94.0664 8.60156 94.8008 8.87109 95.2852 9.24609C95.7773 9.62109 96.1016 10.1289 96.2578 10.7695C96.4219 11.4023 96.5039 12.2031 96.5039 13.1719C96.5039 14.2266 96.4023 15.1133 96.1992 15.832C96.0039 16.543 95.6211 17.1133 95.0508 17.543C94.4805 17.9727 93.6562 18.2812 92.5781 18.4688C91.5 18.6562 90.082 18.75 88.3242 18.75H82.8398C81.2383 18.75 79.8945 18.6797 78.8086 18.5391C77.7227 18.3984 76.8555 18.1172 76.207 17.6953C75.5664 17.2656 75.1055 16.6289 74.8242 15.7852C74.543 14.9414 74.4023 13.8164 74.4023 12.4102H76.6523C76.6523 13.5117 76.7422 14.3633 76.9219 14.9648C77.1016 15.5664 77.4141 16 77.8594 16.2656C78.3125 16.5234 78.9414 16.6797 79.7461 16.7344C80.5586 16.7812 81.5898 16.8047 82.8398 16.8047H88.207C89.6055 16.8047 90.7109 16.7617 91.5234 16.6758C92.3359 16.582 92.9375 16.4102 93.3281 16.1602C93.7188 15.9023 93.9688 15.5352 94.0781 15.0586C94.1953 14.582 94.2539 13.9531 94.2539 13.1719ZM100.195 18.375V0.375H102.445V18.375H100.195ZM106.945 18.375V0.375H109.289L127.371 15.5977H127.395V0.375H129.645V18.375H127.301L109.219 3.02344H109.195V18.375H106.945ZM133.406 9.60938V9.14062C133.406 7.54688 133.484 6.21094 133.641 5.13281C133.797 4.04688 134.066 3.16406 134.449 2.48438C134.832 1.80469 135.352 1.28516 136.008 0.925781C136.672 0.566406 137.504 0.324219 138.504 0.199219C139.504 0.0664062 140.707 0 142.113 0H146.52C148.363 0 149.859 0.0703125 151.008 0.210938C152.164 0.351562 153.051 0.621094 153.668 1.01953C154.293 1.41797 154.723 2 154.957 2.76562C155.191 3.52344 155.309 4.51953 155.309 5.75391H153.059C153.059 4.82422 152.977 4.10156 152.812 3.58594C152.648 3.0625 152.34 2.6875 151.887 2.46094C151.434 2.22656 150.773 2.08203 149.906 2.02734C149.047 1.97266 147.918 1.94531 146.52 1.94531H142.113C140.996 1.94531 140.055 1.98047 139.289 2.05078C138.523 2.11328 137.898 2.26562 137.414 2.50781C136.938 2.74219 136.57 3.11719 136.312 3.63281C136.062 4.14844 135.891 4.85156 135.797 5.74219C135.703 6.63281 135.656 7.76562 135.656 9.14062V9.60938C135.656 10.9375 135.703 12.0391 135.797 12.9141C135.891 13.7891 136.062 14.4883 136.312 15.0117C136.57 15.5352 136.938 15.9258 137.414 16.1836C137.898 16.4414 138.523 16.6094 139.289 16.6875C140.055 16.7656 140.996 16.8047 142.113 16.8047H147.305C148.594 16.8047 149.633 16.7539 150.422 16.6523C151.211 16.543 151.809 16.3164 152.215 15.9727C152.629 15.6211 152.906 15.0898 153.047 14.3789C153.188 13.6602 153.258 12.6914 153.258 11.4727V10.7812H144.645V8.90625H155.508V11.4727C155.508 12.9961 155.379 14.2344 155.121 15.1875C154.863 16.1406 154.426 16.8789 153.809 17.4023C153.199 17.918 152.363 18.2695 151.301 18.457C150.246 18.6523 148.914 18.75 147.305 18.75H142.113C140.355 18.75 138.91 18.6289 137.777 18.3867C136.645 18.1523 135.758 17.7148 135.117 17.0742C134.484 16.4336 134.039 15.5117 133.781 14.3086C133.531 13.1055 133.406 11.5391 133.406 9.60938Z" fill="black"/>
</svg>
